<svg width="86" height="29" viewBox="0 0 86 29" fill="none" xmlns="http://www.w3.org/2000/svg">
<circle cx="14.5" cy="14.5" r="13.5" fill="#8F8FEF" stroke="#252A30" stroke-width="2"/>
<path d="M16.6246 12.4863V12.8566H14.2177V12.5171C14.2177 12.2703 14.1869 12.0697 14.0171 11.7457C13.8474 11.3909 13.4 11.1749 12.7366 11.1749C12.1966 11.1749 11.8109 11.3291 11.5949 11.6377C11.3789 11.9309 11.2709 12.2703 11.2709 12.6251C11.2709 13.0109 11.4097 13.4274 11.6874 13.8903H14.3874V15.68H12.536C12.5514 15.8189 12.5669 15.9269 12.5669 16.004C12.5669 16.3897 12.4743 16.7909 12.2891 17.1766C12.104 17.5623 11.888 17.84 11.6411 18.0097H16.4703V20H8.69429V18.0097C9.04914 17.84 9.38857 17.5931 9.71257 17.2383C10.052 16.8834 10.2217 16.4514 10.2217 15.9577C10.2217 15.896 10.2063 15.8034 10.1909 15.68H8.60171V13.8903H9.31143C9.04914 13.3811 8.92571 12.872 8.92571 12.3629C8.92571 11.3909 9.31143 10.5886 10.0829 9.97143C10.8697 9.35428 11.78 9.04571 12.8446 9.04571C13.94 9.04571 14.8503 9.35428 15.56 9.956C16.2697 10.5577 16.6246 11.4063 16.6246 12.4863Z" fill="white"/>
<circle cx="33.5" cy="14.5" r="13.5" fill="#FFA766" stroke="#252A30" stroke-width="2"/>
<path d="M36.4423 17.0994L37.9234 18.8429C36.936 19.7223 35.7017 20.1543 34.2206 20.1543C33.0017 20.1543 31.8909 19.8149 30.9034 19.1514C29.9314 18.4726 29.2526 17.5777 28.8669 16.4514H27.3857V14.924H28.5891C28.5737 14.8469 28.5737 14.7389 28.5737 14.6V14.4611H27.3857V12.9491H28.8051C29.16 11.7611 29.8234 10.82 30.8263 10.1103C31.8291 9.40057 32.9554 9.04571 34.2206 9.04571C35.6554 9.04571 36.8743 9.47771 37.8617 10.3263L36.3651 12.008C35.748 11.5914 35.0846 11.3754 34.3749 11.3754C33.1251 11.3754 32.1069 11.9771 31.5669 12.9491H34.344V14.4611H31.1657V14.6C31.1657 14.7389 31.1657 14.8469 31.1811 14.924H34.344V16.4514H31.6903C32.292 17.3617 33.1869 17.8246 34.3749 17.8246C35.1463 17.8246 35.8406 17.5777 36.4423 17.0994Z" fill="white"/>
<circle cx="52.5" cy="14.5" r="13.5" fill="#FF6679" stroke="#252A30" stroke-width="2"/>
<path d="M55.5474 16.868C55.5474 17.7166 55.2697 18.4263 54.6989 18.9663C54.1434 19.5063 53.4491 19.8766 52.616 20.0463V21.3886H50.4869V20.0309C49.052 19.7069 47.9566 18.7349 47.54 17.4851L49.4377 16.4669C49.9777 17.4389 50.6874 17.9171 51.5977 17.9171C52.508 17.9171 52.9709 17.5469 52.9709 16.8217C52.9709 16.22 52.616 15.9577 51.4434 15.5257L50.8417 15.3097C49.9006 14.9703 49.1754 14.5691 48.6663 14.1063C48.1571 13.628 47.8949 12.98 47.8949 12.1314C47.8949 10.5886 48.944 9.49314 50.4869 9.16914V7.81143H52.616V9.16914C53.7114 9.44686 54.5754 10.1411 55.2389 11.2674L53.4183 12.3629C52.7857 11.5606 52.3229 11.2366 51.5669 11.2366C50.8263 11.2366 50.3634 11.6069 50.3634 12.2086C50.3634 12.6869 50.6874 12.98 51.4434 13.2423L52.1686 13.5046C54.6217 14.3686 55.5474 15.3714 55.5474 16.868Z" fill="white"/>
<circle cx="71.5" cy="14.5" r="13.5" fill="#60D8D2" stroke="#252A30" stroke-width="2"/>
<path d="M68.3577 20V16.0349H67.1543V15.0474H68.3577V13.7823H67.1543V12.7949H68.3577V8.984H69.9623L71.428 12.7949H73.2486V8.984H74.4674V12.7949H75.6709V13.7823H74.4674V15.0474H75.6709V16.0349H74.4674V20H72.8474L71.3817 16.0349H69.5611V20H68.3577ZM69.5611 15.0474H71.0114L70.5486 13.7823H69.5303L69.5611 15.0474ZM73.2486 17.8246H73.3103L73.264 16.0349H72.616L73.2486 17.8246ZM69.5303 12.7949H70.1783L69.5303 10.8817H69.4686L69.5303 12.7949ZM72.2457 15.0474H73.2794L73.2486 13.7823H71.7829L72.2457 15.0474Z" fill="white"/>
</svg>
