<svg width="56" height="56" viewBox="0 0 56 56" fill="none" xmlns="http://www.w3.org/2000/svg">
<circle cx="28" cy="28" r="28" fill="#1C2127"/>
<path d="M18.0614 31.9787H29.5219V33.9461H20.0288V38.9999L12.3896 31.3607L11 29.9678L19.8351 21.1294V26.0196H22.4405V27.9837H17.8676V25.8759L13.7791 29.9678L17.7541 33.9461L18.0614 34.2534V31.9787Z" fill="#2764FF"/>
<path d="M41.6771 24.0321L40.2876 25.4251L32.8387 32.8706V27.9804C30.0329 27.9804 27.227 27.9804 24.4178 27.9837V26.0196C27.8817 26.0163 31.3423 26.0163 34.8061 26.0163V28.124L38.898 24.0321L34.6124 19.7466V22.0246H23.1519V20.0572H32.645V15L41.6771 24.0321Z" fill="white"/>
</svg>
